<svg xmlns="http://www.w3.org/2000/svg" viewBox="0 0 100 100"><defs><style>.cls-1{fill:#e91e63;}.cls-2{fill:none;}.cls-3{fill:#212121;}.cls-4{fill:#eee;}.cls-5{fill:#a5d6a7;}.cls-6{fill:#42a5f5;}.cls-7{fill:#5e35b1;}</style></defs><title>Artboard 1</title><g id="Layer_2" data-name="Layer 2"><rect class="cls-1" x="17.5" y="17.5" width="65" height="65" rx="2" ry="2"/></g><g id="Layer_1" data-name="Layer 1"><circle class="cls-2" cx="50" cy="50" r="50"/><path class="cls-3" d="M21,27.2a11,11,0,0,1-1.1-2.9,5.52,5.52,0,0,1,.6-4.1,13.83,13.83,0,0,1,8.7-6.9C34,12,41,12.4,51.3,16.8a48.59,48.59,0,0,1,5.6,2.9A30.18,30.18,0,0,1,69.6,35.9c.1.4.2.7.3,1.1a37.63,37.63,0,0,1,1.3,10,24.6,24.6,0,0,0,.7-2.9,22.86,22.86,0,0,0,.6-5.1,14.51,14.51,0,0,0-1.1-6.6,1.7,1.7,0,0,1-.1-.7c0-.2.2-.4.5-.6a.88.88,0,0,1,.7-.1c.2.1.5.2.6.4a26.89,26.89,0,0,1,5.2,15,26.81,26.81,0,0,1-2.6,11.9,7,7,0,0,1,1.7-.6,2.2,2.2,0,0,1,1.4.1,2,2,0,0,1,.9.6,1.23,1.23,0,0,1,.4.8v.5c0,.2-.1.3-.3.4a20.11,20.11,0,0,0-2.1,2.3,24.88,24.88,0,0,0-3.5,5.2,7.69,7.69,0,0,1,1.5-1,2.6,2.6,0,0,1,.7-.3.64.64,0,0,1,.6,0c.2.1.4.1.5.3a2.19,2.19,0,0,1,.3.5.66.66,0,0,1-.1.6,42.42,42.42,0,0,1-2,4.3c-1.2,2.2-2.7,4.7-4.4,6a.76.76,0,0,1-.4.2h-.3L68.9,78a1,1,0,0,1-.1.4,34.67,34.67,0,0,1-2.2,8.4,1,1,0,1,1-1.9-.7A31.74,31.74,0,0,0,66.6,79a1,1,0,0,1,.1-.4c-1-.4-2.1-.9-2.1-.9a36.66,36.66,0,0,0-6.7-2c-2.6-.5-5.3-.6-6.9.5l-.4.4a2.18,2.18,0,0,1-.5.4.91.91,0,0,1-.7.3c-.3,0-.2-.2-.4-.3a.86.86,0,0,1-.3-.6,1,1,0,0,1,.2-.7c.2-.2.3-.4.5-.6s.4-.3.6-.5a39.15,39.15,0,0,0,3.7-4.5A14.29,14.29,0,0,0,55.4,67a13.34,13.34,0,0,0-3.6.5,9.23,9.23,0,0,0-4,1.9c-.2.3-.5.5-.7.8l-.3.3-.6.6a.91.91,0,0,1-.7.3h-.2c-.2,0-.3-.1-.5-.2a.86.86,0,0,1-.3-.6v-.1a1.42,1.42,0,0,1,.2-.6,7,7,0,0,1,.8-1,6.47,6.47,0,0,1,.9-.8,9.73,9.73,0,0,0,2-3.3,5.15,5.15,0,0,0,.2-3c-.7-2.9-4.1-5.4-8.8-7.7A117.6,117.6,0,0,0,24,48.2a2.09,2.09,0,0,1-.6-.4.88.88,0,0,1-.1-.7.92.92,0,0,1,.4-.6,1.85,1.85,0,0,1,.7-.2,22.28,22.28,0,0,0,6.9,0c1.6-.3,2.4-.9,2.6-1.4s-.4-1.5-2.1-2.7-4.7-2.8-9.7-4.5a1,1,0,0,1-.5-.4,1.42,1.42,0,0,1-.2-.6,1.06,1.06,0,0,1,.9-.9,44.61,44.61,0,0,0,4.6-.8c1.6-.3,3.3-.7,4.9-1.1a34,34,0,0,1-6.4-.8A14,14,0,0,1,20,30.8a1,1,0,0,1-.4-.5.64.64,0,0,1,0-.6,1,1,0,0,1,.4-.5,1.42,1.42,0,0,1,.6-.2h.7c.2,0,.3,0,.4-.1a1.42,1.42,0,0,0-.2-.6c-.1-.2-.2-.5-.3-.7S21.1,27.3,21,27.2Z"/><path class="cls-4" d="M74.4,41.3a36.91,36.91,0,0,1-.8,4.6,26,26,0,0,1-3,7.2,1,1,0,0,1-.5.4.85.85,0,0,1-.7,0,1,1,0,0,1-.5-.4,1.48,1.48,0,0,1-.1-.7,34.85,34.85,0,0,0,.4-7.9,8.06,8.06,0,0,1-3.6,2.8,5.57,5.57,0,0,1-2.8.5C67.9,58.1,70,68,69.1,76.9c1.1-.3,2.3-1.6,3.3-3.2a29,29,0,0,0,1.9-3.4,4.62,4.62,0,0,1-.7.7c-.2.3-.5.6-.7.9a1,1,0,0,1-.5.4.64.64,0,0,1-.6,0,1,1,0,0,1-.5-.4,1.42,1.42,0,0,1-.2-.6,14.91,14.91,0,0,1,2.5-6.7,35,35,0,0,1,3.9-5,8.48,8.48,0,0,0-1.5.7,18,18,0,0,0-2.5,1.8.73.73,0,0,1-.6.2,1.07,1.07,0,0,1-.6-.2.86.86,0,0,1-.3-.6,1.7,1.7,0,0,1,.1-.7v-.2a28.1,28.1,0,0,0,3.7-9.5,23.4,23.4,0,0,0-1.4-13.3A13.67,13.67,0,0,1,74.4,41.3Z"/><path class="cls-4" d="M53.3,62.2c5.1-1.7,8.8-4.2,10.3-7.3a47.13,47.13,0,0,1,3.5,21.4v.2a11.71,11.71,0,0,1-1.5-.7,36.25,36.25,0,0,0-4.5-1.5,20.36,20.36,0,0,0-7.4-.9,24.84,24.84,0,0,0,3.2-5,8.29,8.29,0,0,0,.8-2.1v-.4a.76.76,0,0,0-.2-.4l-.3-.3a.52.52,0,0,0-.4-.2,13.89,13.89,0,0,0-2.2,0,17.66,17.66,0,0,0-4.6.9,11.09,11.09,0,0,0,.7-2.9C51.6,62.7,52.5,62.5,53.3,62.2Z"/><path class="cls-4" d="M45.4,16.6c-5.2-1.7-9.3-2.2-12.5-1.9a23.58,23.58,0,0,0-2.8.4,11.55,11.55,0,0,0-7.5,5.4l-.3.6a4.32,4.32,0,0,0-.4,2.9A12,12,0,0,0,23,26.6a7.66,7.66,0,0,1,.7,1.7,1.94,1.94,0,0,1-.2,1.5c0,.1-.1.1-.1.2s-.1.1-.1.2c3.2,1.4,7.6,1.7,11.3,1.6s6.5-.4,6.6-.4a.84.84,0,0,1,.7.2c.2.1.3.4.4.6a.82.82,0,0,1-.1.7.68.68,0,0,1-.6.4,1,1,0,0,1-.4.1c-.8.2-2.5.7-4.8,1.3-2.9.7-6.6,1.6-10,2.3a30.91,30.91,0,0,1,7.5,4.1c1.6,1.4,2.2,2.7,1.9,4.1a3.35,3.35,0,0,1-1.2,1.7c10.7-.9,19-5.4,18.7-10.6A105.75,105.75,0,0,0,41.5,22.4a1,1,0,0,1-.1-1.4,1,1,0,0,1,1.2-.3c.1,0,.1.1.2.1a86.59,86.59,0,0,1,9.3,10.4h.2a5.75,5.75,0,0,0,4.4-1.1,12.87,12.87,0,0,0,4.1-5,33.54,33.54,0,0,0-10.3-6.8C48.7,17.8,47,17.2,45.4,16.6Z"/><path class="cls-5" d="M67.5,37.3a12.35,12.35,0,0,1-3.6,3.6,8,8,0,0,1-4.3,1.3v.1c.7,1.1,1.3,2.3,1.9,3.4a4.47,4.47,0,0,0,3.2-.2,8.23,8.23,0,0,0,3.9-4.1c0-.1.1-.2.1-.3a21.34,21.34,0,0,0-1-4.2c-.1.1-.1.2-.2.3Z"/><path class="cls-6" d="M62.4,27l-.1-.1A14.69,14.69,0,0,1,57.9,32a7.66,7.66,0,0,1-4.1,1.5c1.5,2,3,4.1,4.4,6.4a.35.35,0,0,1,.2.1c.1,0,.3.1.4.1a5.36,5.36,0,0,0,3.9-1,10.57,10.57,0,0,0,3.8-4.5c.1-.1.1-.3.2-.4A24.94,24.94,0,0,0,62.4,27Z"/><path class="cls-7" d="M61.8,50.5c.2.5.5,1,.7,1.5-.2,3.8-5.1,7.3-12.1,9-.6-2.2-2.3-4.3-5.4-6.3a61.7,61.7,0,0,0-11.9-5.5c11.3-.5,20.1-4.7,21.9-10.3,1,1.5,2,3.1,3,4.7A59.08,59.08,0,0,1,61.8,50.5Z"/></g></svg>