<svg xmlns="http://www.w3.org/2000/svg" xmlns:xlink="http://www.w3.org/1999/xlink">
  
  <symbol id="facebook" viewBox="0 0 512 512"><title>facebook</title><path d="M100.2292 80.8987c-10.6765 0-19.3292 8.6526-19.3292 19.3292v311.544c0 10.674 8.6513 19.329 19.3292 19.329h167.723V295.484h-45.6357v-52.852h45.6358v-38.977c0-45.2322 27.626-69.8643 67.9773-69.8643 19.3284 0 35.9414 1.4394 40.7816 2.0834v47.2705l-27.9866.0133c-21.9428 0-26.1924 10.4285-26.1924 25.7306v33.743h52.3372l-6.8156 52.8522h-45.5216V431.101h89.2412c10.6725 0 19.3266-8.654 19.3266-19.329V100.228c0-10.6767-8.6527-19.3293-19.3266-19.3293H100.2292z"/></symbol>
  
  <symbol id="github" viewBox="0 0 512 512"><title>github</title><path d="M256 70.7c-102.6 0-185.9 83.2-185.9 185.9 0 82.1 53.3 151.8 127.1 176.4 9.3 1.7 12.3-4 12.3-8.9v-34.7c-51.7 11.3-62.5-21.9-62.5-21.9-8.4-21.5-20.6-27.2-20.6-27.2-16.9-11.5 1.3-11.3 1.3-11.3 18.7 1.3 28.5 19.2 28.5 19.2 16.6 28.4 43.5 20.2 54.1 15.4 1.7-12 6.5-20.2 11.8-24.9-41.3-4.7-84.7-20.6-84.7-91.9 0-20.3 7.3-36.9 19.2-49.9-1.9-4.7-8.3-23.6 1.8-49.2 0 0 15.6-5 51.1 19.1 14.8-4.1 30.7-6.2 46.5-6.3 15.8.1 31.7 2.1 46.6 6.3 35.5-24 51.1-19.1 51.1-19.1 10.1 25.6 3.8 44.5 1.8 49.2 11.9 13 19.1 29.6 19.1 49.9 0 71.4-43.5 87.1-84.9 91.7 6.7 5.8 12.8 17.1 12.8 34.4v51c0 4.9 3 10.7 12.4 8.9 73.8-24.6 127-94.3 127-176.4 0-102.5-83.3-185.7-185.9-185.7z"/></symbol>
  
  <svg id="linkedin" viewBox="0 0 512 512"><title>linkedin</title><path d="M186.4 142.4c0 19-15.3 34.5-34.2 34.5-18.9 0-34.2-15.4-34.2-34.5 0-19 15.3-34.5 34.2-34.5 18.9 0 34.2 15.5 34.2 34.5zm-5 58.9h-57.8v186.8h57.8V201.3zm92.4 0h-55.4v186.8h55.4v-98c0-26.3 12.1-41.9 35.2-41.9 21.3 0 31.5 15 31.5 41.9v98H398V269.8c0-50-28.3-74.2-68-74.2-39.6 0-56.3 30.9-56.3 30.9v-25.2h.1z"/></svg>
  
</svg>