<svg xmlns="http://www.w3.org/2000/svg" viewBox="0 0 512 512"><path fill="#43619c" d="M100.2292 80.8987c-10.6765 0-19.3292 8.6526-19.3292 19.3292v311.544c0 10.674 8.6513 19.329 19.3292 19.329h167.723V295.484h-45.6357v-52.852h45.6358v-38.977c0-45.2322 27.626-69.8643 67.9773-69.8643 19.3284 0 35.9414 1.4394 40.7816 2.0834v47.2705l-27.9866.0133c-21.9428 0-26.1924 10.4285-26.1924 25.7306v33.743h52.3372l-6.8156 52.8522h-45.5216V431.101h89.2412c10.6725 0 19.3266-8.654 19.3266-19.329V100.228c0-10.6767-8.6527-19.3293-19.3266-19.3293H100.2292z"/></svg>